<?xml version="1.0" standalone="no"?>
<!DOCTYPE svg PUBLIC "-//W3C//DTD SVG 20010904//EN"
 "http://www.w3.org/TR/2001/REC-SVG-20010904/DTD/svg10.dtd">
<svg version="1.0" xmlns="http://www.w3.org/2000/svg"
 width="512.000000pt" height="512.000000pt" viewBox="0 0 512.000000 512.000000"
 preserveAspectRatio="xMidYMid meet">

<g transform="translate(0.000000,512.000000) scale(0.100000,-0.100000)"
fill="#000000" stroke="none">
<path d="M4497 4860 c-21 -6 -52 -17 -70 -26 -18 -9 -440 -424 -939 -922
l-908 -907 -902 901 c-726 725 -913 906 -953 925 -66 31 -174 38 -244 14 -67
-22 -143 -91 -178 -163 -23 -47 -28 -70 -28 -132 0 -138 -53 -78 955 -1085
l905 -904 -901 -903 c-720 -722 -906 -913 -925 -953 -32 -68 -38 -175 -13
-247 25 -69 99 -149 166 -179 40 -18 71 -23 128 -23 146 0 77 -61 1093 953
l907 906 913 -911 c1014 -1014 941 -949 1082 -949 51 1 84 7 123 24 66 30 144
113 166 177 23 67 21 161 -6 231 -20 55 -66 102 -932 965 l-911 907 907 908
c981 982 944 941 955 1063 16 170 -116 323 -287 335 -36 2 -82 0 -103 -5z"/>
</g>
</svg>
