<?xml version="1.0" standalone="no"?>
<!DOCTYPE svg PUBLIC "-//W3C//DTD SVG 20010904//EN"
 "http://www.w3.org/TR/2001/REC-SVG-20010904/DTD/svg10.dtd">
<svg version="1.0" xmlns="http://www.w3.org/2000/svg"
 width="1920.000000pt" height="1920.000000pt" viewBox="0 0 1920.000000 1920.000000"
 preserveAspectRatio="xMidYMid meet">

<g transform="translate(0.000000,1920.000000) scale(0.100000,-0.100000)"
fill="#000000" stroke="none">
<path d="M5435 13060 c-217 -44 -394 -212 -450 -427 -20 -74 -19 -209 1 -286
55 -215 229 -377 450 -422 71 -14 473 -15 4194 -13 3983 3 4117 4 4170 22 154
52 295 168 358 294 105 212 72 470 -83 649 -47 55 -166 134 -246 164 l-64 24
-4145 1 c-2280 1 -4163 -2 -4185 -6z"/>
<path d="M5420 10165 c-205 -45 -381 -215 -434 -421 -20 -79 -20 -209 0 -288
40 -155 154 -298 295 -369 145 -73 -234 -67 4346 -65 l4128 3 74 27 c175 64
310 203 364 373 31 98 31 252 0 350 -54 170 -189 309 -364 373 l-74 27 -4135
2 c-3509 1 -4145 -1 -4200 -12z"/>
<path d="M5485 7284 c-11 -2 -44 -9 -73 -15 -200 -40 -373 -209 -426 -416 -20
-77 -21 -211 -1 -286 51 -195 194 -345 395 -413 53 -18 176 -19 4215 -19 4032
0 4162 1 4215 19 237 80 391 276 407 517 11 174 -42 315 -166 440 -78 78 -144
119 -251 155 -53 18 -185 19 -4175 20 -2266 1 -4129 0 -4140 -2z"/>
</g>
</svg>
